# xmcd
#
# Track frame offsets: 
#        150
#        23804
#        47702
#        64584
#        77774
#        91991
#        122779
#        145543
#        173195
#        193451
#        213884
#        224381
#        246374
#        255621
#
# Disc length: 3648 seconds
#
# Revision: 0
# Processed by: cddbd v1.5.2PL0 Copyright (c) Steve Scherf et al.
# Submitted via: ExactAudioCopy v0.99pb5
#
DISCID=c90e3e0e
DTITLE=Michael Van Merwyk - New Road
DYEAR=2012
DGENRE=Bluesrock
TTITLE0=01 New Road
TTITLE1=02 Gravy
TTITLE2=03 Darkest Night
TTITLE3=04 Call my Name
TTITLE4=05 Next Trouble to come
TTITLE5=06 Hooked
TTITLE6=07 Road to Ruin
TTITLE7=08 Blue Feeling
TTITLE8=09 I still believe
TTITLE9=10 Don´t want to know
TTITLE10=11 Diddley Bow
TTITLE11=12 Love is blind
TTITLE12=13 Lucky as Hell
TTITLE13=14 Will Love find me again
EXTD=
EXTT0=
EXTT1=
EXTT2=
EXTT3=
EXTT4=
EXTT5=
EXTT6=
EXTT7=
EXTT8=
EXTT9=
EXTT10=
EXTT11=
EXTT12=
EXTT13=
PLAYORDER=
